<svg width="2022" height="2013" viewBox="0 0 2022 2013" fill="none" xmlns="http://www.w3.org/2000/svg">
<path d="M1024.73 95.2801C1024.73 95.2801 87.5045 -245.495 170.814 361.889C254.123 969.274 -391.522 1856.38 394.707 1953.94C1180.94 2051.5 1894.27 1903.32 1967.17 1589.9C2040.06 1276.48 2220.85 494.587 1024.73 95.2801Z" fill="#F4F7FA"/>
<path d="M1013.1 1483.64C1003.11 1420.55 997.788 1322.1 1049.68 1234.44C1140.21 1081.5 1302.97 1133.54 1460.21 970.101C1587.03 838.28 1548.05 734.892 1688.18 647.666C1711.63 633.065 1835.59 552.685 1927.02 602.229C1978.55 630.145 1996.9 686.864 2000.34 697.511C2052.41 858.435 1887.16 1108.71 1673.21 1222.23C1550.29 1287.46 1510.92 1265.6 1294.88 1341.18C1167.93 1385.59 1072.44 1443.24 1013.1 1483.64Z" fill="url(#paint0_linear_106_128)"/>
<path d="M1013.1 1483.64C1003.11 1420.55 997.788 1322.1 1049.68 1234.44C1140.21 1081.5 1302.97 1133.54 1460.21 970.101C1587.03 838.28 1548.05 734.892 1688.18 647.666C1711.63 633.065 1835.59 552.685 1927.02 602.229C1978.55 630.145 1996.9 686.864 2000.34 697.511C2052.41 858.435 1887.16 1108.71 1673.21 1222.23C1550.29 1287.46 1510.92 1265.6 1294.88 1341.18C1167.93 1385.59 1072.44 1443.24 1013.1 1483.64Z" fill="url(#paint1_linear_106_128)"/>
<mask id="mask0_106_128" style="mask-type:luminance" maskUnits="userSpaceOnUse" x="1006" y="586" width="1005" height="898">
<path d="M1013.1 1483.64C1003.11 1420.55 997.787 1322.1 1049.68 1234.43C1140.21 1081.5 1302.97 1133.54 1460.21 970.1C1587.03 838.279 1548.05 734.891 1688.17 647.665C1711.63 633.064 1835.59 552.684 1927.02 602.228C1978.55 630.144 1996.9 686.863 2000.34 697.51C2052.41 858.434 1887.16 1108.71 1673.21 1222.23C1550.29 1287.46 1510.92 1265.6 1294.87 1341.18C1167.92 1385.59 1072.44 1443.24 1013.1 1483.64Z" fill="white"/>
</mask>
<g mask="url(#mask0_106_128)">
<path d="M994.31 1559.34L991.773 1558.79C1024.16 1408.34 1084.35 1307.52 1170.66 1259.12C1212.92 1235.42 1246.46 1231.86 1281.97 1228.08C1320.12 1224.03 1359.57 1219.84 1411.81 1188.73C1462.58 1158.49 1480.92 1129.17 1504.12 1092.05C1525.01 1058.64 1551.01 1017.05 1609.09 961.823C1660.01 913.414 1697 890.848 1729.63 870.939C1764.96 849.384 1792.87 832.359 1825.33 790.418C1878.35 721.909 1906.42 633.785 1908.75 528.495L1911.34 528.553C1909 634.409 1880.75 723.046 1827.37 792.004C1794.62 834.323 1766.54 851.458 1730.98 873.152C1698.45 892.993 1661.59 915.483 1610.88 963.701C1553.03 1018.7 1527.13 1060.13 1506.32 1093.42C1482.93 1130.84 1464.45 1160.4 1413.14 1190.95C1360.41 1222.35 1320.67 1226.58 1282.24 1230.66C1247.01 1234.41 1213.73 1237.94 1171.93 1261.38C1086.29 1309.4 1026.53 1409.65 994.31 1559.34Z" fill="white"/>
<path d="M1732.12 882.353C1726.83 882.353 1721.48 882.255 1716.06 882.053L1714.33 881.988L1714.88 880.343C1715.59 878.247 1784.59 669.718 1708.22 582.84L1710.17 581.129C1783.88 664.98 1724.27 859.547 1717.88 879.522C1832.28 883.34 1917.71 840.585 1969.3 803.941C2025.46 764.044 2054.7 722.648 2054.99 722.235L2057.11 723.719C2056.82 724.136 2027.32 765.9 1970.8 806.055C1921.07 841.382 1840.1 882.353 1732.12 882.353Z" fill="white"/>
<path d="M1739.88 1060.54C1720.89 1060.54 1703.29 1059.48 1687.43 1057.84C1607.34 1049.58 1553.14 1025.26 1552.61 1025.02L1551.59 1024.56L1551.89 1023.48C1582.74 914.707 1557.23 759.455 1556.97 757.9L1559.53 757.471C1559.79 759.026 1585.22 913.828 1554.69 1023.1C1562.48 1026.45 1614.1 1047.69 1687.79 1055.27C1761.3 1062.84 1872.42 1057.99 1984.42 991.875L1985.74 994.107C1897.27 1046.33 1809.35 1060.54 1739.88 1060.54Z" fill="white"/>
<path d="M1644.77 1314.22C1436.18 1314.22 1316.83 1227.01 1315.63 1226.12L1314.54 1225.3L1315.41 1224.25C1398.8 1123.85 1367.72 956.741 1367.4 955.065L1369.94 954.573C1370.27 956.255 1401.37 1123.36 1318.29 1224.83C1331.03 1233.76 1452.1 1314.51 1655.84 1311.54L1655.88 1314.14C1652.16 1314.19 1648.44 1314.22 1644.77 1314.22Z" fill="white"/>
</g>
<path d="M1228.88 1356.55C1264.09 1331.6 1321.7 1295.53 1399.04 1268.7C1536.61 1220.99 1599.3 1250.12 1657.79 1192.49C1718.33 1132.85 1679.79 1073.43 1752.24 1006.86C1758.33 1001.26 1836.11 931.639 1905.87 958.235C1954.67 976.841 1973.34 1032.55 1982.11 1058.68C2016.11 1160.12 1994.89 1314.2 1886.4 1389.53C1783.55 1460.95 1654.18 1425.7 1613.11 1414.21C1541.06 1394.07 1524.14 1365.82 1450.88 1347.53C1361.78 1325.28 1281.46 1340.77 1228.88 1356.55Z" fill="url(#paint2_linear_106_128)"/>
<path d="M199.707 1344.56C168.008 1345.65 136.05 1336.84 110.043 1317.48C52.4362 1274.59 46.238 1196.66 96.2839 1143.95L827.701 368.183C851.631 342.99 886.221 329.121 922.439 330.11C958.495 331.094 992.629 346.706 1016.07 372.851L1260.96 645.932L1539.23 339.971C1580.85 294.2 1652.95 291.418 1700.2 333.29C1747.15 374.904 1752.17 445.288 1711.47 490.949L1350.7 895.655C1328.23 920.864 1295.52 935.585 1260.96 935.953C1226.26 936.322 1193.11 922.178 1170.19 897.121L922.438 626.374L301.985 1299.07C275.346 1327.72 237.712 1343.26 199.707 1344.56Z" fill="url(#paint3_linear_106_128)"/>
<path d="M1789.31 549.728L1482.84 280.823L1876.13 148.771H1903.59L1814.09 547.308L1789.31 549.728Z" fill="url(#paint4_linear_106_128)"/>
<path d="M227.169 1344.56C195.47 1345.65 163.512 1336.84 137.505 1317.47C79.8979 1274.59 73.6997 1196.66 123.746 1143.95L855.163 368.183C879.094 342.99 913.683 329.121 949.902 330.11C985.957 331.094 1020.09 346.706 1043.54 372.851L1288.43 645.932L1566.69 339.971C1608.32 294.2 1680.41 291.418 1727.66 333.29C1774.62 374.904 1779.63 445.288 1738.93 490.949L1378.17 895.655C1355.69 920.864 1322.98 935.585 1288.43 935.953C1253.72 936.322 1220.58 922.178 1197.65 897.121L949.902 626.374L329.449 1299.07C302.808 1327.71 265.175 1343.25 227.169 1344.56Z" fill="url(#paint5_linear_106_128)"/>
<path d="M1814.09 547.308L1510.3 280.823L1903.59 148.771L1814.09 547.308Z" fill="url(#paint6_linear_106_128)"/>
<path d="M360.606 901.903L214.337 1840.25C211.557 1858.34 224.467 1874.69 240.929 1873.91L973.008 1839.36L360.606 901.903Z" fill="url(#paint7_linear_106_128)"/>
<path d="M520.086 1770.34C543.203 1699.89 566.731 1592.35 539.188 1472.95C507.559 1335.85 437.498 1308.42 374.591 1161.87C284.794 952.674 386.422 801.138 293.462 737.199C248.129 706.019 176.844 705.993 132.894 737.297C7.50214 826.608 41.877 1215.63 240.824 1367.43C330.802 1436.09 409.318 1427.94 476.838 1516.79C536.501 1595.29 531.822 1698.86 520.086 1770.34Z" fill="url(#paint8_linear_106_128)"/>
<mask id="mask1_106_128" style="mask-type:luminance" maskUnits="userSpaceOnUse" x="59" y="713" width="493" height="1058">
<path d="M520.086 1770.34C543.203 1699.89 566.731 1592.35 539.188 1472.95C507.559 1335.85 437.498 1308.42 374.591 1161.87C284.794 952.674 386.422 801.138 293.462 737.199C248.129 706.019 176.844 705.993 132.894 737.297C7.50214 826.608 41.877 1215.63 240.824 1367.43C330.802 1436.09 409.318 1427.94 476.838 1516.79C536.501 1595.29 531.822 1698.86 520.086 1770.34Z" fill="white"/>
</mask>
<g mask="url(#mask1_106_128)">
<path d="M534.058 1593.13C526.527 1563.52 516.393 1534.42 503.941 1506.63C475.339 1442.78 443.764 1407.66 403.793 1363.19C377.695 1334.16 348.116 1301.25 313.933 1254.07C249.974 1165.8 230.124 1134.79 212.333 1084.78C177.135 985.848 182.54 897.137 188.895 853.064C197.911 790.547 218.886 731.053 251.241 676.233L253.475 677.551C221.292 732.077 200.428 791.253 191.462 853.434C185.141 897.27 179.765 985.504 214.774 1083.91C232.458 1133.61 252.247 1164.51 316.032 1252.55C350.138 1299.62 379.666 1332.47 405.721 1361.46C445.846 1406.09 477.539 1441.35 506.307 1505.56C518.819 1533.49 529.003 1562.74 536.57 1592.49L534.058 1593.13Z" fill="white"/>
<path d="M195.483 1015.14L193.605 1014.13C193.235 1013.92 156.07 993.495 123.051 951.927C92.5637 913.545 59.4373 848.768 74.7524 758.137L77.309 758.568C62.1523 848.258 94.9215 912.345 125.081 950.314C153.565 986.175 185.094 1006.11 192.98 1010.77C195.159 938.512 241.513 891.674 280.234 865.024C322.515 835.924 365.069 823.987 365.494 823.87L366.184 826.369C365.763 826.485 323.57 838.33 281.643 867.202C243.061 893.771 196.801 940.634 195.519 1013.01L195.483 1015.14Z" fill="white"/>
<path d="M205.899 1247.71C168.306 1247.71 124.144 1238.48 83.3467 1206.73L84.9371 1204.68C175.98 1275.54 284.171 1232.78 295.671 1227.91C277.243 1156.49 293.585 1103.79 310.601 1072.11C329.145 1037.58 352.518 1019.82 352.752 1019.64L354.307 1021.72C353.389 1022.41 262.781 1092.29 298.459 1228.32L298.736 1229.38L297.747 1229.83C297.072 1230.14 257.738 1247.71 205.899 1247.71Z" fill="white"/>
<path d="M289.679 1383.98C261.495 1383.98 227.754 1378.86 188.512 1364.53L189.403 1362.09C317.204 1408.78 385.808 1356.9 393.37 1350.68C362.164 1277.43 406.189 1159.16 406.64 1157.96L409.066 1158.88C408.618 1160.07 364.605 1278.32 396.128 1350.53L396.501 1351.38L395.814 1352.01C395.321 1352.45 359.617 1383.98 289.679 1383.98Z" fill="white"/>
</g>
<path d="M748.27 1828.7C756.093 1781.38 760.59 1707.48 722.071 1641.38C654.873 1526.08 532.388 1564.33 415.148 1440.8C320.589 1341.17 350.389 1263.73 245.61 1197.52C228.072 1186.43 135.403 1125.44 66.4907 1162.18C27.6574 1182.88 13.5871 1225.38 10.9465 1233.35C-28.9726 1353.93 93.8409 1542.7 253.917 1629.04C345.887 1678.65 375.559 1662.44 537.405 1720.29C632.508 1754.29 703.913 1798.06 748.27 1828.7Z" fill="url(#paint9_linear_106_128)"/>
<mask id="mask2_106_128" style="mask-type:luminance" maskUnits="userSpaceOnUse" x="3" y="1150" width="751" height="679">
<path d="M748.27 1828.7C756.093 1781.38 760.59 1707.48 722.071 1641.38C654.873 1526.08 532.388 1564.33 415.148 1440.8C320.589 1341.17 350.389 1263.73 245.61 1197.52C228.072 1186.43 135.403 1125.44 66.4907 1162.18C27.6574 1182.88 13.5871 1225.38 10.9465 1233.35C-28.9726 1353.93 93.8409 1542.7 253.917 1629.04C345.887 1678.65 375.559 1662.44 537.405 1720.29C632.508 1754.29 703.913 1798.06 748.27 1828.7Z" fill="white"/>
</mask>
<g mask="url(#mask2_106_128)">
<path d="M761.675 1885.7C738.259 1773.23 693.947 1697.72 629.971 1661.28C598.764 1643.5 573.823 1640.67 547.42 1637.69C518.547 1634.42 488.693 1631.04 449.195 1607.16C410.759 1583.91 397.016 1561.59 379.617 1533.34C364.171 1508.25 344.946 1477.03 301.816 1435.46C264.006 1399.01 236.455 1381.95 212.149 1366.89C185.53 1350.4 164.505 1337.38 140.09 1305.39C100.322 1253.28 79.539 1186.51 78.3184 1106.94L80.9104 1106.9C82.1234 1185.9 102.728 1252.16 142.154 1303.82C166.274 1335.43 187.121 1348.34 213.513 1364.69C237.93 1379.81 265.604 1396.96 303.613 1433.59C346.982 1475.39 366.301 1506.77 381.824 1531.98C399.039 1559.94 412.636 1582.02 450.539 1604.94C489.549 1628.53 519.114 1631.87 547.71 1635.11C574.387 1638.13 599.584 1640.98 631.254 1659.02C695.905 1695.85 740.637 1771.94 764.212 1885.18L761.675 1885.7Z" fill="white"/>
<path d="M213.556 1373.85C53.0384 1373.85 -31.233 1254.16 -32.0811 1252.93L-29.9471 1251.46C-29.0914 1252.7 57.4119 1375.32 221.692 1371.16C216.375 1354.03 173.774 1209.41 229.194 1147.23L231.132 1148.95C173.462 1213.66 224.159 1370.42 224.677 1372L225.221 1373.65L223.487 1373.7C220.154 1373.8 216.825 1373.85 213.556 1373.85Z" fill="white"/>
<path d="M207.282 1507.61C154.667 1507.61 87.5636 1496.79 20.2354 1456.42L21.5693 1454.2C105.28 1504.38 188.66 1508.58 243.862 1503.27C298.421 1498.01 336.898 1482.71 343.541 1479.93C321.276 1397.67 341.131 1281.74 341.337 1280.57L343.889 1281.02C343.685 1282.18 323.757 1398.57 346.34 1480.33L346.634 1481.41L345.618 1481.86C345.212 1482.04 304.34 1500.05 244.111 1505.85C232.909 1506.93 220.556 1507.61 207.282 1507.61Z" fill="white"/>
<path d="M278.611 1698.6C274.598 1698.6 270.554 1698.55 266.454 1698.46L266.51 1695.87C350.598 1697.69 415.334 1680.21 454.827 1665.23C492.38 1650.99 514.849 1636.25 519.948 1632.74C458.262 1555.98 482.438 1430.8 482.692 1429.54L485.233 1430.05C484.982 1431.3 460.821 1556.48 522.832 1632.18L523.697 1633.23L522.598 1634.04C521.697 1634.71 432.982 1698.6 278.611 1698.6Z" fill="white"/>
</g>
<path d="M584.607 2001.7L208.934 1875.42L749.301 1839.36L584.607 2001.7Z" fill="#D8DEE8"/>
<path d="M1699.65 921.46L388.719 880.914C369.601 880.322 357.064 894.963 360.778 913.615L573.422 1981.59C577.136 2000.24 595.378 2014.26 614.11 2012.91L1898.48 1920.1C1913.01 1919.05 1922.12 1904.93 1918.86 1888.58L1732.36 951.91C1729.11 935.552 1714.48 921.919 1699.65 921.46Z" fill="url(#paint10_linear_106_128)"/>
<path d="M1706.72 921.46L395.794 880.914C376.675 880.322 364.139 894.963 367.853 913.615L580.497 1981.59C584.211 2000.24 602.454 2014.26 621.186 2012.91L1905.56 1920.1C1920.09 1919.05 1929.2 1904.93 1925.94 1888.58L1739.44 951.91C1736.18 935.552 1721.55 921.919 1706.72 921.46Z" fill="url(#paint11_linear_106_128)"/>
<g opacity="0.3">
<path d="M1364.6 1487.36C1106.58 1347.16 862.064 1456.14 686.01 1276.32C577.603 1165.58 557.702 1008.8 560.954 886.022L395.794 880.914C376.675 880.322 364.139 894.963 367.853 913.616L580.497 1981.59C584.211 2000.24 602.453 2014.26 621.186 2012.91L1735.58 1932.38C1613.77 1667.99 1476.45 1548.13 1364.6 1487.36Z" fill="url(#paint12_linear_106_128)"/>
</g>
<path d="M1861.69 1884.53L645.033 1967.57C624.819 1968.95 605.12 1953.71 601.102 1933.54L411.665 982.117C407.648 961.942 421.141 946.008 441.734 946.525L1681.13 977.679C1697.32 978.086 1713.27 992.849 1716.82 1010.66L1884.01 1850.32C1887.55 1868.13 1877.58 1883.44 1861.69 1884.53Z" fill="#D8DEE8"/>
<path d="M1867.15 1884.15L651.949 1967.1C631.76 1968.47 612.084 1953.25 608.07 1933.09L418.753 982.272C414.738 962.11 428.212 946.186 448.778 946.703L1686.69 977.82C1702.86 978.226 1718.8 992.98 1722.34 1010.78L1889.43 1849.97C1892.98 1867.77 1883.02 1883.07 1867.15 1884.15Z" fill="url(#paint13_linear_106_128)"/>
<path d="M1065.45 1289.8L932.806 1290.62C928.828 1290.65 924.943 1287.36 924.132 1283.29L902.189 1173.09C901.378 1169.01 903.956 1165.73 907.944 1165.75L1040.9 1166.49C1044.79 1166.52 1048.59 1169.79 1049.39 1173.81L1071.02 1282.48C1071.82 1286.5 1069.33 1289.78 1065.45 1289.8ZM937.07 1275.84L1055.53 1275.28L1036.76 1181.02L918.091 1180.52L937.07 1275.84Z" fill="#D8DEE8"/>
<path d="M1233.08 1288.76L1104.68 1289.56C1100.83 1289.58 1097.06 1286.35 1096.26 1282.34L1074.67 1173.93C1073.88 1169.92 1076.36 1166.69 1080.22 1166.71L1208.93 1167.43C1212.69 1167.45 1216.37 1170.68 1217.16 1174.63L1238.45 1281.56C1239.24 1285.52 1236.84 1288.74 1233.08 1288.76ZM1108.76 1275.02L1223.43 1274.47L1204.96 1181.73L1090.09 1181.25L1108.76 1275.02Z" fill="#D8DEE8"/>
<path d="M1395.42 1287.76L1271.06 1288.53C1267.33 1288.55 1263.67 1285.37 1262.89 1281.43L1241.65 1174.75C1240.86 1170.8 1243.26 1167.62 1246.99 1167.65L1371.65 1168.34C1375.29 1168.36 1378.87 1171.53 1379.65 1175.42L1400.6 1280.67C1401.38 1284.56 1399.06 1287.74 1395.42 1287.76ZM1274.97 1274.22L1386.02 1273.69L1367.85 1182.41L1256.59 1181.95L1274.97 1274.22Z" fill="#D8DEE8"/>
<path d="M1552.72 1286.79L1432.21 1287.53C1428.6 1287.55 1425.05 1284.43 1424.27 1280.54L1403.36 1175.54C1402.59 1171.66 1404.9 1168.53 1408.52 1168.55L1529.31 1169.22C1532.84 1169.24 1536.32 1172.37 1537.09 1176.2L1557.72 1279.81C1558.48 1283.64 1556.24 1286.76 1552.72 1286.79ZM1435.95 1273.45L1543.57 1272.94L1525.67 1183.08L1417.87 1182.62L1435.95 1273.45Z" fill="#D8DEE8"/>
<path d="M1705.2 1285.84L1588.38 1286.56C1584.88 1286.59 1581.42 1283.51 1580.66 1279.68L1560.08 1176.31C1559.32 1172.49 1561.55 1169.4 1565.06 1169.42L1682.16 1170.08C1685.58 1170.1 1688.96 1173.17 1689.71 1176.94L1710.03 1278.97C1710.78 1282.75 1708.62 1285.82 1705.2 1285.84ZM1591.96 1272.7L1696.29 1272.2L1678.67 1183.72L1574.16 1183.28L1591.96 1272.7Z" fill="#D8DEE8"/>
<path d="M743.169 1442.19L601.767 1445.03C597.524 1445.12 593.401 1441.77 592.563 1437.56L569.871 1323.59C569.032 1319.38 571.802 1315.94 576.056 1315.9L717.791 1314.73C721.932 1314.69 725.956 1318.03 726.783 1322.18L749.149 1434.52C749.977 1438.67 747.301 1442.1 743.169 1442.19ZM606.408 1429.64L732.683 1427.28L713.284 1329.85L586.782 1331.07L606.408 1429.64Z" fill="#D8DEE8"/>
<path d="M921.687 1438.59L784.96 1441.34C780.858 1441.43 776.862 1438.14 776.037 1433.99L753.726 1321.94C752.901 1317.8 755.568 1314.41 759.68 1314.38L896.729 1313.24C900.733 1313.21 904.637 1316.49 905.449 1320.58L927.446 1431.05C928.259 1435.13 925.682 1438.51 921.687 1438.59ZM789.396 1426.21L911.496 1423.93L892.418 1328.11L770.098 1329.3L789.396 1426.21Z" fill="#D8DEE8"/>
<path d="M1094.39 1435.11L962.107 1437.78C958.139 1437.86 954.262 1434.62 953.451 1430.54L931.509 1320.34C930.698 1316.27 933.266 1312.94 937.244 1312.91L1069.84 1311.8C1073.71 1311.77 1077.5 1315 1078.3 1319.02L1099.94 1427.7C1100.74 1431.71 1098.25 1435.03 1094.39 1435.11ZM966.35 1422.9L1084.48 1420.68L1065.71 1326.43L947.371 1327.58L966.35 1422.9Z" fill="#D8DEE8"/>
<path d="M1261.55 1431.75L1133.5 1434.32C1129.66 1434.4 1125.9 1431.21 1125.1 1427.21L1103.52 1318.79C1102.72 1314.79 1105.19 1311.51 1109.04 1311.48L1237.39 1310.41C1241.15 1310.38 1244.82 1313.56 1245.61 1317.52L1266.9 1424.45C1267.69 1428.4 1265.3 1431.67 1261.55 1431.75ZM1137.56 1419.69L1251.91 1417.55L1233.45 1324.81L1118.89 1325.92L1137.56 1419.69Z" fill="#D8DEE8"/>
<path d="M1423.44 1428.49L1299.43 1430.98C1295.71 1431.06 1292.06 1427.92 1291.27 1423.98L1270.03 1317.3C1269.24 1313.36 1271.63 1310.13 1275.36 1310.1L1399.67 1309.07C1403.3 1309.04 1406.87 1312.17 1407.65 1316.06L1428.6 1421.31C1429.38 1425.2 1427.07 1428.41 1423.44 1428.49ZM1303.31 1416.59L1414.06 1414.51L1395.89 1323.23L1284.94 1324.31L1303.31 1416.59Z" fill="#D8DEE8"/>
<path d="M1580.3 1425.33L1460.13 1427.75C1456.53 1427.82 1452.98 1424.73 1452.21 1420.85L1431.3 1315.85C1430.53 1311.97 1432.83 1308.8 1436.44 1308.77L1556.9 1307.77C1560.42 1307.74 1563.89 1310.82 1564.65 1314.65L1585.28 1418.26C1586.05 1422.09 1583.82 1425.26 1580.3 1425.33ZM1463.85 1413.58L1571.17 1411.57L1553.28 1321.71L1445.77 1322.75L1463.85 1413.58Z" fill="#D8DEE8"/>
<path d="M1732.37 1422.26L1615.87 1424.61C1612.37 1424.68 1608.93 1421.64 1608.16 1417.82L1587.58 1314.44C1586.82 1310.62 1589.04 1307.5 1592.54 1307.47L1709.32 1306.5C1712.73 1306.47 1716.11 1309.51 1716.86 1313.28L1737.18 1415.31C1737.93 1419.08 1735.78 1422.2 1732.37 1422.26ZM1619.43 1410.66L1723.47 1408.71L1705.85 1320.23L1601.63 1321.24L1619.43 1410.66Z" fill="#D8DEE8"/>
<path d="M773.078 1592.39L632.068 1597.21C627.836 1597.35 623.724 1594.06 622.885 1589.84L600.193 1475.88C599.354 1471.66 602.115 1468.17 606.357 1468.08L747.699 1464.93C751.829 1464.84 755.844 1468.13 756.67 1472.28L779.037 1584.62C779.864 1588.77 777.197 1592.25 773.078 1592.39ZM636.687 1581.71L762.612 1577.59L743.213 1480.16L617.061 1483.14L636.687 1581.71Z" fill="#D8DEE8"/>
<path d="M951.099 1586.31L814.751 1590.97C810.66 1591.11 806.673 1587.86 805.849 1583.72L783.538 1471.67C782.713 1467.53 785.371 1464.09 789.47 1464L926.141 1460.96C930.134 1460.87 934.029 1464.11 934.842 1468.19L956.839 1578.67C957.651 1582.75 955.083 1586.17 951.099 1586.31ZM819.167 1575.73L940.929 1571.75L921.851 1475.93L799.87 1478.82L819.167 1575.73Z" fill="#D8DEE8"/>
<path d="M1123.32 1580.43L991.407 1584.93C987.451 1585.07 983.583 1581.88 982.772 1577.8L960.83 1467.6C960.019 1463.53 962.579 1460.15 966.544 1460.06L1098.77 1457.12C1102.63 1457.03 1106.41 1460.22 1107.21 1464.24L1128.85 1572.91C1129.65 1576.93 1127.18 1580.29 1123.32 1580.43ZM995.631 1569.96L1113.43 1566.1L1094.67 1471.84L976.652 1474.64L995.631 1569.96Z" fill="#D8DEE8"/>
<path d="M1290.02 1574.73L1162.33 1579.09C1158.5 1579.22 1154.75 1576.08 1153.95 1572.07L1132.36 1463.66C1131.56 1459.65 1134.03 1456.33 1137.87 1456.25L1265.86 1453.4C1269.61 1453.31 1273.28 1456.45 1274.06 1460.4L1295.35 1567.34C1296.14 1571.29 1293.76 1574.6 1290.02 1574.73ZM1166.37 1564.36L1280.4 1560.62L1261.94 1467.88L1147.7 1470.59L1166.37 1564.36Z" fill="#D8DEE8"/>
<path d="M1451.46 1569.21L1327.79 1573.44C1324.08 1573.56 1320.44 1570.47 1319.65 1566.53L1298.41 1459.85C1297.63 1455.9 1300.01 1452.64 1303.72 1452.56L1427.69 1449.8C1431.31 1449.72 1434.88 1452.8 1435.65 1456.7L1456.61 1561.94C1457.38 1565.83 1455.08 1569.09 1451.46 1569.21ZM1331.66 1558.95L1442.1 1555.33L1423.93 1464.05L1313.29 1466.67L1331.66 1558.95Z" fill="#D8DEE8"/>
<path d="M1607.89 1563.87L1488.05 1567.96C1484.46 1568.09 1480.92 1565.04 1480.15 1561.16L1459.24 1456.15C1458.47 1452.27 1460.76 1449.06 1464.36 1448.98L1584.48 1446.31C1588 1446.23 1591.46 1449.27 1592.22 1453.1L1612.85 1556.72C1613.61 1560.55 1611.39 1563.75 1607.89 1563.87ZM1491.75 1553.7L1598.77 1550.2L1580.88 1460.34L1473.67 1462.87L1491.75 1553.7Z" fill="#D8DEE8"/>
<path d="M1759.53 1558.69L1643.35 1562.66C1639.87 1562.78 1636.43 1559.77 1635.67 1555.95L1615.09 1452.58C1614.32 1448.75 1616.54 1445.59 1620.03 1445.52L1736.48 1442.92C1739.89 1442.85 1743.26 1445.84 1744.01 1449.62L1764.32 1551.65C1765.07 1555.42 1762.93 1558.57 1759.53 1558.69ZM1646.9 1548.62L1750.65 1545.22L1733.03 1456.74L1629.09 1459.2L1646.9 1548.62Z" fill="#D8DEE8"/>
<path d="M802.985 1742.6L662.367 1749.39C658.148 1749.59 654.044 1746.34 653.206 1742.13L630.514 1628.16C629.675 1623.95 632.426 1620.41 636.656 1620.26L777.606 1615.14C781.724 1614.99 785.73 1618.23 786.557 1622.39L808.924 1734.72C809.75 1738.87 807.093 1742.4 802.985 1742.6ZM666.966 1733.78L792.541 1727.9L773.142 1630.47L647.34 1635.21L666.966 1733.78Z" fill="#D8DEE8"/>
<path d="M980.511 1734.03L844.543 1740.59C840.463 1740.79 836.486 1737.59 835.661 1733.45L813.35 1621.4C812.525 1617.25 815.173 1613.77 819.262 1613.63L955.552 1608.68C959.535 1608.53 963.42 1611.73 964.234 1615.81L986.23 1726.29C987.044 1730.37 984.485 1733.84 980.511 1734.03ZM848.938 1725.26L970.362 1719.57L951.284 1623.75L829.641 1628.34L848.938 1725.26Z" fill="#D8DEE8"/>
<path d="M1152.25 1725.74L1020.71 1732.09C1016.76 1732.28 1012.9 1729.13 1012.09 1725.06L990.149 1614.85C989.338 1610.78 991.889 1607.36 995.844 1607.22L1127.7 1602.43C1131.56 1602.29 1135.33 1605.43 1136.13 1609.45L1157.77 1718.13C1158.56 1722.14 1156.1 1725.55 1152.25 1725.74ZM1024.91 1717.01L1142.38 1711.51L1123.62 1617.25L1005.93 1621.69L1024.91 1717.01Z" fill="#D8DEE8"/>
<path d="M1318.49 1717.71L1191.15 1723.86C1187.33 1724.04 1183.59 1720.94 1182.79 1716.94L1161.21 1608.52C1160.41 1604.51 1162.86 1601.15 1166.69 1601.01L1294.33 1596.38C1298.06 1596.25 1301.72 1599.34 1302.51 1603.29L1323.8 1710.23C1324.59 1714.18 1322.22 1717.53 1318.49 1717.71ZM1195.17 1709.03L1308.89 1703.7L1290.43 1610.96L1176.5 1615.26L1195.17 1709.03Z" fill="#D8DEE8"/>
<path d="M1479.48 1709.94L1356.16 1715.89C1352.46 1716.07 1348.82 1713.02 1348.04 1709.08L1326.79 1602.39C1326.01 1598.45 1328.38 1595.14 1332.09 1595.01L1455.71 1590.52C1459.32 1590.39 1462.88 1593.44 1463.65 1597.33L1484.61 1702.58C1485.38 1706.47 1483.09 1709.77 1479.48 1709.94ZM1360 1701.31L1470.14 1696.15L1451.97 1604.87L1341.63 1609.03L1360 1701.31Z" fill="#D8DEE8"/>
<path d="M1635.47 1702.41L1515.97 1708.18C1512.39 1708.35 1508.85 1705.35 1508.08 1701.46L1487.17 1596.46C1486.4 1592.58 1488.69 1589.33 1492.28 1589.2L1612.07 1584.85C1615.57 1584.72 1619.02 1587.72 1619.79 1591.55L1640.42 1695.17C1641.18 1699 1638.97 1702.24 1635.47 1702.41ZM1519.65 1693.83L1626.37 1688.83L1608.48 1598.97L1501.57 1603L1519.65 1693.83Z" fill="#D8DEE8"/>
<path d="M1786.69 1695.11L1670.84 1700.7C1667.37 1700.87 1663.93 1697.91 1663.17 1694.09L1642.59 1590.71C1641.83 1586.89 1644.03 1583.69 1647.51 1583.56L1763.64 1579.35C1767.04 1579.22 1770.4 1582.18 1771.15 1585.95L1791.47 1687.98C1792.22 1691.76 1790.08 1694.95 1786.69 1695.11ZM1674.37 1686.58L1777.83 1681.73L1760.21 1593.25L1656.56 1597.15L1674.37 1686.58Z" fill="#D8DEE8"/>
<path d="M832.892 1892.8L692.667 1901.56C688.459 1901.82 684.365 1898.62 683.526 1894.41L660.835 1780.44C659.996 1776.23 662.737 1772.64 666.956 1772.43L807.514 1765.34C811.62 1765.14 815.616 1768.34 816.444 1772.49L838.81 1884.82C839.636 1888.97 836.989 1892.55 832.892 1892.8ZM697.244 1885.85L822.469 1878.21L803.07 1780.78L677.619 1787.28L697.244 1885.85Z" fill="#D8DEE8"/>
<path d="M1009.92 1881.75L874.334 1890.21C870.265 1890.47 866.298 1887.32 865.472 1883.17L843.162 1771.12C842.337 1766.98 844.976 1763.45 849.053 1763.25L984.965 1756.4C988.936 1756.2 992.812 1759.34 993.626 1763.43L1015.62 1873.9C1016.44 1877.99 1013.89 1881.5 1009.92 1881.75ZM878.709 1874.77L999.793 1867.38L980.715 1771.57L859.411 1777.86L878.709 1874.77Z" fill="#D8DEE8"/>
<path d="M1181.19 1871.05L1050.01 1879.24C1046.07 1879.49 1042.22 1876.38 1041.41 1872.31L1019.47 1762.11C1018.66 1758.03 1021.2 1754.57 1025.14 1754.37L1156.64 1747.74C1160.48 1747.55 1164.24 1750.65 1165.04 1754.66L1186.68 1863.34C1187.48 1867.36 1185.02 1870.81 1181.19 1871.05ZM1054.19 1864.06L1171.34 1856.91L1152.57 1762.66L1035.21 1768.74L1054.19 1864.06Z" fill="#D8DEE8"/>
<path d="M1346.96 1860.69L1219.98 1868.63C1216.17 1868.86 1212.43 1865.81 1211.64 1861.8L1190.05 1753.39C1189.25 1749.38 1191.7 1745.97 1195.52 1745.78L1322.8 1739.36C1326.52 1739.18 1330.18 1742.23 1330.96 1746.18L1352.26 1853.12C1353.04 1857.07 1350.67 1860.46 1346.96 1860.69ZM1223.98 1853.7L1337.38 1846.78L1318.91 1754.04L1205.31 1759.93L1223.98 1853.7Z" fill="#D8DEE8"/>
<path d="M678.399 1146.06L534.313 1145.01L528.168 1114.14L672.334 1115.6L678.399 1146.06Z" fill="url(#paint14_linear_106_128)"/>
<path d="M860.235 1147.38L720.973 1146.37L714.931 1116.03L854.272 1117.43L860.235 1147.38Z" fill="url(#paint15_linear_106_128)"/>
<path d="M1036.07 1148.66L901.395 1147.68L895.455 1117.85L1030.21 1119.21L1036.07 1148.66Z" fill="url(#paint16_linear_106_128)"/>
<path d="M1206.21 1149.9L1075.89 1148.95L1070.05 1119.61L1200.44 1120.93L1206.21 1149.9Z" fill="url(#paint17_linear_106_128)"/>
<path d="M1370.91 1151.1L1244.74 1150.18L1239 1121.31L1365.23 1122.59L1370.91 1151.1Z" fill="url(#paint18_linear_106_128)"/>
<path d="M1530.44 1152.27L1408.23 1151.38L1402.57 1122.96L1524.85 1124.2L1530.44 1152.27Z" fill="url(#paint19_linear_106_128)"/>
<path d="M1685.03 1153.39L1566.59 1152.53L1561.02 1124.56L1679.52 1125.76L1685.03 1153.39Z" fill="url(#paint20_linear_106_128)"/>
<path d="M1672.05 1088.21L519.817 1072.2L508.201 1013.86L1661.65 1035.97L1672.05 1088.21Z" fill="#D8DEE8"/>
<g opacity="0.3">
<path d="M1364.6 1487.36C1106.58 1347.16 862.064 1456.14 686.01 1276.31C595.725 1184.09 566.778 1059.62 561.556 949.538L448.069 946.685C427.894 946.177 414.676 961.797 418.614 981.574L608.209 1933.78C612.146 1953.56 631.447 1968.5 651.252 1967.14L1717.48 1894.37C1600.36 1656.37 1470.96 1545.14 1364.6 1487.36Z" fill="#D8DEE8"/>
</g>
<path d="M1232.78 1095.78C1229.8 1088.98 1219.65 1084.54 1213.4 1090.34C1195.48 1106.97 1191.89 1134.58 1182.7 1156.71C1175.68 1173.61 1167.87 1190.15 1160.3 1206.79C1144.13 1183.78 1130.3 1159.04 1113.62 1136.38C1107.83 1128.52 1094.03 1135.71 1098.4 1144.93C1115.67 1181.37 1127.14 1219.24 1150.13 1252.94C1158.18 1264.75 1175.57 1261.11 1181.34 1249.4C1194.67 1222.36 1208.27 1195.42 1219.84 1167.57C1228.86 1145.84 1242.92 1118.89 1232.78 1095.78Z" fill="url(#paint21_linear_106_128)"/>
<path d="M744.617 280.982C752.34 284.903 762.042 281.302 766.288 272.94C770.533 264.578 767.715 254.621 759.992 250.699C759.592 250.496 759.184 250.325 758.774 250.162C760.209 245.535 761.291 240.872 762.016 236.207C762.459 236.205 762.903 236.198 763.354 236.158C772.165 235.372 779.158 227.277 778.973 218.073C778.789 208.871 771.497 202.048 762.686 202.833C762.225 202.874 761.773 202.947 761.323 203.027C760.403 198.466 759.142 194.011 757.551 189.7C757.956 189.463 758.359 189.218 758.753 188.942C766.291 183.661 768.702 173.237 764.136 165.661C759.571 158.084 749.76 156.223 742.221 161.504C741.835 161.775 741.472 162.067 741.112 162.364C738.135 159.072 734.87 156.022 731.336 153.239C731.585 152.831 731.828 152.418 732.048 151.985C736.294 143.623 741.842 134.489 734.059 130.689C716.054 121.9 708.327 129.424 704.082 137.786C703.862 138.219 703.672 138.659 703.49 139.1C699.157 137.891 694.769 137.054 690.354 136.593C690.382 136.128 690.403 135.662 690.394 135.19C690.209 125.988 692.939 121.008 684.095 120.836C664.809 120.462 658.302 128.833 658.487 138.035C658.497 138.516 658.537 138.986 658.584 139.453C654.165 140.713 649.824 142.324 645.599 144.272C645.398 143.861 645.19 143.454 644.951 143.057C640.386 135.48 630.575 133.619 623.036 138.901C615.498 144.182 613.088 154.605 617.653 162.182C617.887 162.57 618.143 162.933 618.403 163.291C615.065 166.63 611.939 170.255 609.05 174.144C608.677 173.909 608.297 173.68 607.897 173.477C600.175 169.556 590.473 173.157 586.227 181.518C581.981 189.88 584.8 199.837 592.523 203.759C592.923 203.961 593.331 204.132 593.74 204.296C592.306 208.923 591.223 213.586 590.498 218.251C590.056 218.253 589.611 218.26 589.16 218.3C580.349 219.086 573.356 227.182 573.541 236.385C573.725 245.587 581.018 252.41 589.828 251.625C590.288 251.584 590.741 251.511 591.191 251.431C592.111 255.991 593.372 260.446 594.963 264.757C594.558 264.994 594.155 265.24 593.76 265.516C586.222 270.797 583.812 281.221 588.378 288.797C592.943 296.374 608.057 299.894 615.595 294.613C615.982 294.343 611.043 292.391 611.402 292.094C614.379 295.385 617.644 298.436 621.177 301.219C620.929 301.627 620.686 302.04 620.466 302.473C616.22 310.835 619.039 320.792 626.761 324.713C634.484 328.634 644.186 325.034 648.432 316.672C648.651 316.239 648.841 315.799 649.023 315.359C653.356 316.568 657.745 317.404 662.159 317.866C662.131 318.331 662.11 318.797 662.12 319.268C662.304 328.47 669.596 335.294 678.407 334.509C687.218 333.723 694.211 325.627 694.026 316.424C694.017 315.943 693.976 315.473 693.929 315.006C698.349 313.747 702.689 312.135 706.914 310.188C707.115 310.598 707.323 311.006 707.562 311.402C712.127 318.979 721.939 320.839 729.477 315.558C737.016 310.277 739.425 299.854 734.86 292.276C734.626 291.888 734.37 291.526 734.109 291.168C737.448 287.829 740.574 284.204 743.463 280.315C743.838 280.549 744.217 280.778 744.617 280.982ZM648.346 282.203C620.306 267.966 610.072 231.814 625.488 201.453C640.902 171.091 676.129 158.02 704.168 172.256C732.208 186.493 742.442 222.646 727.027 253.006C711.612 283.368 676.386 296.439 648.346 282.203Z" fill="url(#paint22_linear_106_128)"/>
<path d="M763.353 236.158C772.164 235.373 779.157 227.276 778.972 218.074C778.788 208.871 771.496 202.048 762.685 202.834C762.224 202.875 761.772 202.948 761.322 203.028C760.402 198.467 759.141 194.013 757.55 189.701C757.955 189.464 758.358 189.219 758.752 188.943C766.29 183.662 775.616 170.901 770.298 163.833C760.204 150.418 749.758 156.224 742.22 161.506C741.834 161.777 741.471 162.069 741.111 162.365C738.134 159.074 734.869 156.023 731.335 153.24C731.584 152.832 731.827 152.42 732.047 151.987C734.358 147.436 734.562 142.418 733.036 138.152C725.755 150.967 718.572 163.836 711.518 176.774C733.887 193.166 741.009 225.468 727.027 253.008C715.178 276.344 691.626 289.448 668.628 287.806C667.602 290.467 666.595 293.142 665.497 295.776C662.515 302.927 659.129 309.93 655.738 316.924C657.871 317.325 660.013 317.642 662.161 317.867C662.133 318.332 662.112 318.798 662.121 319.27C662.306 328.472 667.893 336.29 683.861 335.443C692.695 334.975 694.213 325.628 694.029 316.425C694.019 315.945 693.979 315.474 693.931 315.007C698.351 313.748 702.692 312.136 706.917 310.188C707.117 310.599 707.326 311.006 707.564 311.402C712.13 318.98 727.967 322.199 735.505 316.917C743.043 311.636 739.427 299.855 734.862 292.277C734.628 291.889 734.372 291.526 734.112 291.168C737.45 287.829 740.577 284.204 743.466 280.316C743.84 280.55 744.218 280.78 744.618 280.982C752.341 284.904 762.043 281.303 766.289 272.941C770.534 264.58 767.716 254.622 759.992 250.7C759.592 250.498 759.184 250.327 758.775 250.163C760.209 245.536 761.291 240.872 762.017 236.208C762.458 236.206 762.902 236.199 763.353 236.158Z" fill="url(#paint23_linear_106_128)"/>
<path d="M752.923 281.926C760.645 285.847 770.347 282.246 774.593 273.884C778.839 265.522 776.02 255.565 768.298 251.644C767.898 251.441 767.489 251.27 767.08 251.106C768.514 246.479 769.596 241.816 770.322 237.151C770.765 237.149 771.209 237.142 771.66 237.102C780.471 236.317 787.464 228.22 787.279 219.018C787.095 209.815 779.802 202.992 770.991 203.777C770.531 203.818 770.078 203.891 769.629 203.971C768.708 199.411 767.447 194.956 765.856 190.645C766.262 190.408 766.665 190.162 767.059 189.886C774.597 184.606 777.007 174.182 772.442 166.605C767.876 159.029 758.065 157.168 750.527 162.449C750.14 162.72 749.777 163.012 749.418 163.309C746.441 160.018 743.175 156.968 739.642 154.184C739.89 153.777 740.133 153.364 740.354 152.931C744.599 144.569 741.781 134.611 734.058 130.69C726.336 126.769 716.633 130.37 712.388 138.732C712.168 139.165 711.978 139.605 711.796 140.046C707.463 138.836 703.074 138 698.66 137.538C698.688 137.073 698.709 136.607 698.7 136.136C698.515 126.933 691.223 120.11 682.412 120.896C673.601 121.681 666.608 129.778 666.793 138.979C666.803 139.46 666.843 139.93 666.891 140.397C662.471 141.658 658.13 143.268 653.905 145.216C653.704 144.806 653.496 144.398 653.258 144.001C648.693 136.424 638.881 134.563 631.343 139.845C623.805 145.127 621.395 155.55 625.96 163.126C626.194 163.514 626.45 163.878 626.71 164.236C623.372 167.574 620.246 171.199 617.357 175.088C616.984 174.854 616.605 174.625 616.204 174.422C608.482 170.501 598.78 174.101 594.534 182.464C590.288 190.826 593.107 200.783 600.829 204.704C601.23 204.907 601.638 205.078 602.048 205.241C600.613 209.869 599.531 214.531 598.806 219.197C598.363 219.198 597.919 219.206 597.468 219.246C588.657 220.032 581.664 228.128 581.848 237.33C582.032 246.532 589.326 253.355 598.136 252.57C598.596 252.529 599.049 252.457 599.498 252.376C600.419 256.937 601.68 261.392 603.271 265.703C602.865 265.94 602.462 266.185 602.068 266.461C594.53 271.742 592.12 282.165 596.685 289.742C601.251 297.319 611.062 299.18 618.6 293.899C618.987 293.628 619.35 293.336 619.709 293.039C622.686 296.33 625.952 299.38 629.485 302.164C629.237 302.572 628.994 302.984 628.773 303.418C624.528 311.78 627.346 321.737 635.069 325.658C642.791 329.579 652.494 325.978 656.739 317.616C656.96 317.183 657.149 316.743 657.331 316.303C661.663 317.512 666.052 318.348 670.467 318.81C670.439 319.275 670.418 319.741 670.427 320.213C670.612 329.414 677.904 336.238 686.715 335.453C695.525 334.667 702.519 326.571 702.334 317.368C702.324 316.887 702.284 316.417 702.236 315.95C706.657 314.69 710.997 313.079 715.222 311.132C715.423 311.542 715.631 311.95 715.87 312.346C720.435 319.923 730.246 321.784 737.785 316.503C745.323 311.221 747.733 300.798 743.168 293.221C742.934 292.833 742.678 292.47 742.418 292.112C745.755 288.774 748.882 285.149 751.771 281.26C752.144 281.494 752.523 281.723 752.923 281.926ZM656.652 283.148C628.613 268.911 618.379 232.758 633.794 202.398C649.209 172.037 684.435 158.966 712.475 173.201C740.514 187.438 750.748 223.591 735.333 253.951C719.918 284.313 684.691 297.383 656.652 283.148Z" fill="url(#paint24_linear_106_128)"/>
<path d="M487.968 511.863C503.097 519.544 522.102 512.491 530.419 496.111C538.735 479.731 533.214 460.225 518.086 452.544C517.302 452.146 516.502 451.811 515.7 451.492C518.511 442.428 520.63 433.293 522.051 424.155C522.918 424.152 523.788 424.137 524.673 424.059C541.932 422.52 555.63 406.66 555.269 388.634C554.907 370.607 540.623 357.241 523.364 358.779C522.461 358.86 521.575 359.002 520.695 359.158C518.891 350.225 516.422 341.499 513.305 333.053C514.099 332.589 514.888 332.109 515.661 331.568C530.427 321.223 535.148 300.804 526.205 285.962C517.263 271.12 498.042 267.475 483.276 277.82C482.519 278.351 481.807 278.923 481.104 279.505C475.271 273.057 468.875 267.082 461.954 261.629C462.44 260.831 462.916 260.024 463.347 259.175C471.664 242.795 482.532 224.902 467.286 217.458C432.016 200.241 416.882 214.98 408.564 231.36C408.134 232.209 407.762 233.07 407.405 233.934C398.919 231.564 390.321 229.926 381.673 229.022C381.728 228.112 381.769 227.199 381.751 226.275C381.389 208.249 386.738 198.494 369.413 198.158C331.634 197.423 318.887 213.821 319.249 231.846C319.268 232.789 319.346 233.71 319.44 234.625C310.783 237.092 302.28 240.247 294.004 244.064C293.61 243.26 293.202 242.461 292.735 241.685C283.793 226.843 264.572 223.199 249.806 233.545C235.039 243.89 230.318 264.308 239.261 279.15C239.719 279.911 240.221 280.622 240.73 281.323C234.191 287.863 228.067 294.964 222.408 302.582C221.676 302.123 220.934 301.674 220.15 301.277C205.022 293.596 186.017 300.648 177.701 317.028C169.384 333.408 174.906 352.914 190.033 360.595C190.817 360.994 191.617 361.327 192.419 361.648C189.608 370.712 187.49 379.846 186.068 388.985C185.201 388.987 184.331 389.002 183.448 389.08C166.188 390.62 152.489 406.479 152.851 424.506C153.212 442.532 167.497 455.897 184.757 454.359C185.658 454.279 186.544 454.137 187.426 453.98C189.228 462.914 191.699 471.64 194.815 480.086C194.022 480.55 193.231 481.031 192.46 481.571C177.694 491.916 172.973 512.335 181.916 527.176C190.858 542.018 220.465 548.914 235.231 538.568C235.988 538.038 226.313 534.216 227.016 533.635C232.849 540.082 239.246 546.057 246.166 551.51C245.68 552.308 245.203 553.116 244.772 553.964C236.455 570.344 241.977 589.85 257.106 597.531C272.234 605.212 291.239 598.16 299.555 581.78C299.986 580.931 300.358 580.069 300.715 579.206C309.201 581.575 317.8 583.214 326.447 584.118C326.393 585.028 326.351 585.941 326.369 586.865C326.73 604.891 341.016 618.256 358.275 616.718C375.534 615.179 389.233 599.319 388.871 581.293C388.852 580.351 388.773 579.429 388.68 578.515C397.338 576.047 405.841 572.892 414.117 569.076C414.51 569.879 414.919 570.679 415.386 571.454C424.328 586.296 443.549 589.942 458.315 579.596C473.082 569.25 477.803 548.832 468.86 533.99C468.402 533.23 467.9 532.52 467.391 531.818C473.929 525.278 480.054 518.176 485.713 510.559C486.443 511.017 487.185 511.465 487.968 511.863ZM299.384 514.255C244.458 486.368 224.411 415.549 254.607 356.075C284.803 296.601 353.808 270.995 408.734 298.883C463.661 326.77 483.708 397.589 453.512 457.063C423.316 516.537 354.311 542.143 299.384 514.255Z" fill="url(#paint25_linear_106_128)"/>
<path d="M524.672 424.059C541.932 422.52 555.63 406.66 555.269 388.634C554.907 370.608 540.623 357.241 523.363 358.78C522.461 358.86 521.575 359.003 520.694 359.16C518.892 350.226 516.421 341.501 513.305 333.054C514.098 332.591 514.888 332.11 515.66 331.569C530.426 321.224 548.695 296.227 538.277 282.381C518.504 256.102 498.042 267.477 483.275 277.822C482.519 278.352 481.807 278.924 481.104 279.505C475.271 273.057 468.874 267.083 461.954 261.63C462.44 260.832 462.917 260.024 463.348 259.176C467.874 250.261 468.273 240.432 465.284 232.076C451.021 257.179 436.951 282.388 423.133 307.733C466.952 339.842 480.902 403.118 453.513 457.064C430.302 502.778 384.166 528.447 339.116 525.231C337.107 530.442 335.133 535.682 332.981 540.843C327.142 554.85 320.508 568.568 313.865 582.268C318.043 583.056 322.238 583.676 326.447 584.116C326.392 585.027 326.351 585.939 326.369 586.863C326.73 604.889 337.675 620.205 368.955 618.546C386.259 617.628 389.232 599.319 388.871 581.292C388.852 580.35 388.774 579.429 388.68 578.514C397.338 576.046 405.84 572.89 414.116 569.074C414.51 569.878 414.918 570.678 415.386 571.453C424.328 586.295 455.351 592.601 470.118 582.255C484.885 571.91 477.802 548.831 468.859 533.989C468.401 533.228 467.899 532.517 467.39 531.816C473.928 525.277 480.053 518.175 485.712 510.558C486.444 511.017 487.186 511.465 487.97 511.862C503.098 519.544 522.103 512.491 530.42 496.111C538.736 479.731 533.215 460.225 518.087 452.545C517.303 452.146 516.503 451.812 515.701 451.492C518.512 442.428 520.63 433.293 522.052 424.156C522.918 424.153 523.788 424.138 524.672 424.059Z" fill="url(#paint26_linear_106_128)"/>
<path d="M504.24 513.713C519.367 521.394 538.373 514.342 546.69 497.961C555.006 481.581 549.485 462.075 534.356 454.394C533.573 453.996 532.773 453.661 531.971 453.342C534.781 444.278 536.9 435.144 538.321 426.005C539.189 426.003 540.058 425.989 540.943 425.909C558.202 424.37 571.9 408.511 571.539 390.484C571.177 372.457 556.893 359.091 539.634 360.629C538.731 360.711 537.846 360.853 536.964 361.01C535.161 352.076 532.692 343.35 529.575 334.904C530.369 334.439 531.159 333.96 531.93 333.419C546.696 323.074 551.418 302.655 542.475 287.813C533.533 272.972 514.312 269.326 499.546 279.672C498.789 280.202 498.077 280.774 497.373 281.355C491.542 274.908 485.145 268.933 478.223 263.48C478.71 262.682 479.186 261.874 479.617 261.026C487.934 244.645 482.412 225.139 467.285 217.459C452.156 209.778 433.151 216.83 424.835 233.21C424.404 234.059 424.033 234.921 423.675 235.784C415.189 233.414 406.59 231.776 397.944 230.871C397.998 229.961 398.039 229.048 398.022 228.124C397.66 210.098 383.375 196.732 366.116 198.271C348.857 199.809 335.158 215.67 335.52 233.696C335.539 234.638 335.618 235.558 335.711 236.474C327.053 238.942 318.551 242.097 310.274 245.913C309.881 245.109 309.473 244.31 309.006 243.534C300.063 228.692 280.843 225.047 266.076 235.393C251.309 245.739 246.589 266.157 255.531 280.999C255.99 281.759 256.491 282.47 257.001 283.171C250.462 289.712 244.338 296.813 238.679 304.431C237.947 303.972 237.205 303.523 236.421 303.125C221.293 295.444 202.288 302.497 193.971 318.877C185.654 335.257 191.176 354.763 206.304 362.444C207.087 362.842 207.888 363.176 208.69 363.496C205.879 372.56 203.76 381.695 202.339 390.833C201.472 390.836 200.602 390.85 199.718 390.928C182.459 392.468 168.76 408.327 169.121 426.354C169.483 444.38 183.768 457.746 201.027 456.207C201.929 456.127 202.815 455.985 203.696 455.828C205.499 464.761 207.968 473.488 211.085 481.934C210.291 482.398 209.501 482.878 208.73 483.419C193.964 493.764 189.242 514.182 198.185 529.024C207.127 543.866 226.348 547.511 241.114 537.166C241.871 536.636 242.582 536.063 243.286 535.482C249.118 541.929 255.515 547.905 262.436 553.358C261.95 554.156 261.473 554.963 261.042 555.812C252.726 572.192 258.247 591.698 273.375 599.379C288.503 607.06 307.509 600.007 315.825 583.627C316.256 582.779 316.627 581.917 316.984 581.053C325.471 583.423 334.069 585.061 342.716 585.965C342.662 586.875 342.62 587.788 342.638 588.712C343 606.737 357.284 620.104 374.544 618.565C391.803 617.026 405.502 601.166 405.14 583.14C405.122 582.198 405.042 581.276 404.949 580.362C413.607 577.894 422.11 574.739 430.386 570.922C430.779 571.726 431.187 572.525 431.655 573.3C440.598 588.142 459.818 591.788 474.584 581.442C489.351 571.096 494.071 550.678 485.129 535.835C484.67 535.076 484.169 534.365 483.659 533.663C490.199 527.124 496.322 520.023 501.981 512.405C502.714 512.867 503.456 513.315 504.24 513.713ZM315.656 516.106C260.73 488.218 240.682 417.399 270.878 357.925C301.074 298.451 370.079 272.846 425.005 300.733C479.931 328.619 499.979 399.439 469.783 458.913C439.587 518.388 370.582 543.992 315.656 516.106Z" fill="url(#paint27_linear_106_128)"/>
<defs>
<linearGradient id="paint0_linear_106_128" x1="1777.68" y1="695.276" x2="1200.9" y2="1527.49" gradientUnits="userSpaceOnUse">
<stop stop-color="#AA80F9"/>
<stop offset="0.9964" stop-color="#6165D7"/>
</linearGradient>
<linearGradient id="paint1_linear_106_128" x1="2010.01" y1="1034.96" x2="1006.57" y2="1034.96" gradientUnits="userSpaceOnUse">
<stop stop-color="#FF9085"/>
<stop offset="1" stop-color="#FB6FBB"/>
</linearGradient>
<linearGradient id="paint2_linear_106_128" x1="2010.04" y1="1123.33" x2="889.296" y2="1532.01" gradientUnits="userSpaceOnUse">
<stop offset="0.0036" stop-color="#E38DDD"/>
<stop offset="1" stop-color="#9571F6"/>
</linearGradient>
<linearGradient id="paint3_linear_106_128" x1="662.498" y1="1109.02" x2="-133.714" y2="2071.43" gradientUnits="userSpaceOnUse">
<stop offset="0.0036" stop-color="#F36F56"/>
<stop offset="1" stop-color="#FFC444"/>
</linearGradient>
<linearGradient id="paint4_linear_106_128" x1="906.507" y1="1310.89" x2="110.296" y2="2273.3" gradientUnits="userSpaceOnUse">
<stop offset="0.0036" stop-color="#F36F56"/>
<stop offset="1" stop-color="#FFC444"/>
</linearGradient>
<linearGradient id="paint5_linear_106_128" x1="412.383" y1="1336.31" x2="1834.81" y2="-86.1207" gradientUnits="userSpaceOnUse">
<stop stop-color="#FFC444"/>
<stop offset="0.9964" stop-color="#F36F56"/>
</linearGradient>
<linearGradient id="paint6_linear_106_128" x1="576.168" y1="1500.09" x2="1998.6" y2="77.6649" gradientUnits="userSpaceOnUse">
<stop stop-color="#FFC444"/>
<stop offset="0.9964" stop-color="#F36F56"/>
</linearGradient>
<linearGradient id="paint7_linear_106_128" x1="-9.68146" y1="1716.74" x2="261.837" y2="1577.83" gradientUnits="userSpaceOnUse">
<stop stop-color="#AA80F9"/>
<stop offset="0.9964" stop-color="#6165D7"/>
</linearGradient>
<linearGradient id="paint8_linear_106_128" x1="134.349" y1="722.45" x2="434.155" y2="1676.38" gradientUnits="userSpaceOnUse">
<stop stop-color="#FF9085"/>
<stop offset="1" stop-color="#FB6FBB"/>
</linearGradient>
<linearGradient id="paint9_linear_106_128" x1="-137.988" y1="889.804" x2="1047.37" y2="2358.62" gradientUnits="userSpaceOnUse">
<stop offset="0.0036" stop-color="#E38DDD"/>
<stop offset="1" stop-color="#9571F6"/>
</linearGradient>
<linearGradient id="paint10_linear_106_128" x1="360.126" y1="1446.95" x2="1919.52" y2="1446.95" gradientUnits="userSpaceOnUse">
<stop offset="0.0036" stop-color="#EBEFF2"/>
<stop offset="1" stop-color="white"/>
</linearGradient>
<linearGradient id="paint11_linear_106_128" x1="828.254" y1="1032.79" x2="1918.84" y2="2800.27" gradientUnits="userSpaceOnUse">
<stop stop-color="#AA80F9"/>
<stop offset="0.9964" stop-color="#6165D7"/>
</linearGradient>
<linearGradient id="paint12_linear_106_128" x1="588.511" y1="1187.18" x2="1695.68" y2="2981.53" gradientUnits="userSpaceOnUse">
<stop stop-color="#FF9085"/>
<stop offset="1" stop-color="#FB6FBB"/>
</linearGradient>
<linearGradient id="paint13_linear_106_128" x1="1208.1" y1="2067.45" x2="1379.84" y2="792.799" gradientUnits="userSpaceOnUse">
<stop offset="0.0036" stop-color="#EBEFF2"/>
<stop offset="1" stop-color="white"/>
</linearGradient>
<linearGradient id="paint14_linear_106_128" x1="568.548" y1="1011.94" x2="619.924" y2="1714.1" gradientUnits="userSpaceOnUse">
<stop offset="0.0036" stop-color="#E38DDD"/>
<stop offset="1" stop-color="#9571F6"/>
</linearGradient>
<linearGradient id="paint15_linear_106_128" x1="749.722" y1="1002.9" x2="799.997" y2="1690.01" gradientUnits="userSpaceOnUse">
<stop offset="0.0036" stop-color="#E38DDD"/>
<stop offset="1" stop-color="#9571F6"/>
</linearGradient>
<linearGradient id="paint16_linear_106_128" x1="924.911" y1="994.263" x2="974.128" y2="1666.92" gradientUnits="userSpaceOnUse">
<stop offset="0.0036" stop-color="#E38DDD"/>
<stop offset="1" stop-color="#9571F6"/>
</linearGradient>
<linearGradient id="paint17_linear_106_128" x1="1094.41" y1="985.999" x2="1142.61" y2="1644.78" gradientUnits="userSpaceOnUse">
<stop offset="0.0036" stop-color="#E38DDD"/>
<stop offset="1" stop-color="#9571F6"/>
</linearGradient>
<linearGradient id="paint18_linear_106_128" x1="1258.48" y1="978.089" x2="1305.71" y2="1623.52" gradientUnits="userSpaceOnUse">
<stop offset="0.0036" stop-color="#E38DDD"/>
<stop offset="1" stop-color="#9571F6"/>
</linearGradient>
<linearGradient id="paint19_linear_106_128" x1="1417.39" y1="970.509" x2="1463.68" y2="1603.11" gradientUnits="userSpaceOnUse">
<stop offset="0.0036" stop-color="#E38DDD"/>
<stop offset="1" stop-color="#9571F6"/>
</linearGradient>
<linearGradient id="paint20_linear_106_128" x1="1571.38" y1="963.241" x2="1616.76" y2="1583.49" gradientUnits="userSpaceOnUse">
<stop offset="0.0036" stop-color="#E38DDD"/>
<stop offset="1" stop-color="#9571F6"/>
</linearGradient>
<linearGradient id="paint21_linear_106_128" x1="1094.8" y1="1159.74" x2="1227.31" y2="1179.11" gradientUnits="userSpaceOnUse">
<stop stop-color="#AB316D"/>
<stop offset="1" stop-color="#792D3D"/>
</linearGradient>
<linearGradient id="paint22_linear_106_128" x1="931.009" y1="298.357" x2="689.865" y2="230.119" gradientUnits="userSpaceOnUse">
<stop stop-color="#311944"/>
<stop offset="1" stop-color="#A03976"/>
</linearGradient>
<linearGradient id="paint23_linear_106_128" x1="930.377" y1="300.591" x2="689.232" y2="232.352" gradientUnits="userSpaceOnUse">
<stop stop-color="#311944"/>
<stop offset="1" stop-color="#A03976"/>
</linearGradient>
<linearGradient id="paint24_linear_106_128" x1="683.545" y1="145.968" x2="687.316" y2="450.479" gradientUnits="userSpaceOnUse">
<stop stop-color="#FF9085"/>
<stop offset="1" stop-color="#FB6FBB"/>
</linearGradient>
<linearGradient id="paint25_linear_106_128" x1="853.089" y1="545.9" x2="380.716" y2="412.229" gradientUnits="userSpaceOnUse">
<stop stop-color="#311944"/>
<stop offset="1" stop-color="#A03976"/>
</linearGradient>
<linearGradient id="paint26_linear_106_128" x1="851.851" y1="550.275" x2="379.477" y2="416.604" gradientUnits="userSpaceOnUse">
<stop stop-color="#311944"/>
<stop offset="1" stop-color="#A03976"/>
</linearGradient>
<linearGradient id="paint27_linear_106_128" x1="368.337" y1="247.386" x2="375.723" y2="843.889" gradientUnits="userSpaceOnUse">
<stop stop-color="#FF9085"/>
<stop offset="1" stop-color="#FB6FBB"/>
</linearGradient>
</defs>
</svg>
