<svg width="280" height="38" viewBox="0 0 280 38" fill="none" xmlns="http://www.w3.org/2000/svg">
<path d="M47.324 30V10.4H56.9C59.364 10.4 61.212 10.8667 62.444 11.8C63.6947 12.7333 64.32 13.9653 64.32 15.496C64.32 16.5227 64.068 17.4187 63.564 18.184C63.06 18.9307 62.3693 19.5093 61.492 19.92C60.6147 20.3307 59.6067 20.536 58.468 20.536L59 19.388C60.232 19.388 61.324 19.5933 62.276 20.004C63.228 20.396 63.9653 20.984 64.488 21.768C65.0293 22.552 65.3 23.5133 65.3 24.652C65.3 26.332 64.6373 27.648 63.312 28.6C61.9867 29.5333 60.036 30 57.46 30H47.324ZM51.832 26.584H57.124C58.3 26.584 59.1867 26.3973 59.784 26.024C60.4 25.632 60.708 25.016 60.708 24.176C60.708 23.3547 60.4 22.748 59.784 22.356C59.1867 21.9453 58.3 21.74 57.124 21.74H51.496V18.436H56.34C57.4413 18.436 58.2813 18.2493 58.86 17.876C59.4573 17.484 59.756 16.896 59.756 16.112C59.756 15.3467 59.4573 14.7773 58.86 14.404C58.2813 14.012 57.4413 13.816 56.34 13.816H51.832V26.584ZM77.4422 30.336C74.6608 30.336 72.4862 29.5613 70.9182 28.012C69.3502 26.4627 68.5662 24.2507 68.5662 21.376V10.4H73.1022V21.208C73.1022 23.0747 73.4848 24.4187 74.2502 25.24C75.0155 26.0613 76.0888 26.472 77.4702 26.472C78.8515 26.472 79.9248 26.0613 80.6902 25.24C81.4555 24.4187 81.8382 23.0747 81.8382 21.208V10.4H86.3182V21.376C86.3182 24.2507 85.5342 26.4627 83.9662 28.012C82.3982 29.5613 80.2235 30.336 77.4422 30.336ZM97.2406 30.336C95.6726 30.336 94.1699 30.1307 92.7326 29.72C91.2952 29.2907 90.1379 28.74 89.2606 28.068L90.8006 24.652C91.6406 25.2493 92.6299 25.744 93.7686 26.136C94.9259 26.5093 96.0926 26.696 97.2686 26.696C98.1646 26.696 98.8832 26.612 99.4246 26.444C99.9846 26.2573 100.395 26.0053 100.657 25.688C100.918 25.3707 101.049 25.0067 101.049 24.596C101.049 24.0733 100.843 23.6627 100.433 23.364C100.022 23.0467 99.4806 22.7947 98.8086 22.608C98.1366 22.4027 97.3899 22.216 96.5686 22.048C95.7659 21.8613 94.9539 21.6373 94.1326 21.376C93.3299 21.1147 92.5926 20.7787 91.9206 20.368C91.2486 19.9573 90.6979 19.416 90.2686 18.744C89.8579 18.072 89.6526 17.2133 89.6526 16.168C89.6526 15.048 89.9512 14.0307 90.5486 13.116C91.1646 12.1827 92.0792 11.4453 93.2926 10.904C94.5246 10.344 96.0646 10.064 97.9126 10.064C99.1446 10.064 100.358 10.2133 101.553 10.512C102.747 10.792 103.802 11.2213 104.717 11.8L103.317 15.244C102.402 14.7213 101.487 14.3387 100.573 14.096C99.6579 13.8347 98.7619 13.704 97.8846 13.704C97.0072 13.704 96.2886 13.8067 95.7286 14.012C95.1686 14.2173 94.7672 14.488 94.5246 14.824C94.2819 15.1413 94.1606 15.5147 94.1606 15.944C94.1606 16.448 94.3659 16.8587 94.7766 17.176C95.1872 17.4747 95.7286 17.7173 96.4006 17.904C97.0726 18.0907 97.8099 18.2773 98.6126 18.464C99.4339 18.6507 100.246 18.8653 101.049 19.108C101.87 19.3507 102.617 19.6773 103.289 20.088C103.961 20.4987 104.502 21.04 104.913 21.712C105.342 22.384 105.557 23.2333 105.557 24.26C105.557 25.3613 105.249 26.3693 104.633 27.284C104.017 28.1987 103.093 28.936 101.861 29.496C100.647 30.056 99.1072 30.336 97.2406 30.336ZM108.656 30V10.4H113.192V30H108.656ZM117.844 30V10.4H121.596L133.16 24.512H131.34V10.4H135.82V30H132.096L120.504 15.888H122.324V30H117.844ZM144.629 18.296H154.065V21.824H144.629V18.296ZM144.965 26.36H155.633V30H140.457V10.4H155.269V14.04H144.965V26.36ZM165.682 30.336C164.114 30.336 162.611 30.1307 161.174 29.72C159.737 29.2907 158.579 28.74 157.702 28.068L159.242 24.652C160.082 25.2493 161.071 25.744 162.21 26.136C163.367 26.5093 164.534 26.696 165.71 26.696C166.606 26.696 167.325 26.612 167.866 26.444C168.426 26.2573 168.837 26.0053 169.098 25.688C169.359 25.3707 169.49 25.0067 169.49 24.596C169.49 24.0733 169.285 23.6627 168.874 23.364C168.463 23.0467 167.922 22.7947 167.25 22.608C166.578 22.4027 165.831 22.216 165.01 22.048C164.207 21.8613 163.395 21.6373 162.574 21.376C161.771 21.1147 161.034 20.7787 160.362 20.368C159.69 19.9573 159.139 19.416 158.71 18.744C158.299 18.072 158.094 17.2133 158.094 16.168C158.094 15.048 158.393 14.0307 158.99 13.116C159.606 12.1827 160.521 11.4453 161.734 10.904C162.966 10.344 164.506 10.064 166.354 10.064C167.586 10.064 168.799 10.2133 169.994 10.512C171.189 10.792 172.243 11.2213 173.158 11.8L171.758 15.244C170.843 14.7213 169.929 14.3387 169.014 14.096C168.099 13.8347 167.203 13.704 166.326 13.704C165.449 13.704 164.73 13.8067 164.17 14.012C163.61 14.2173 163.209 14.488 162.966 14.824C162.723 15.1413 162.602 15.5147 162.602 15.944C162.602 16.448 162.807 16.8587 163.218 17.176C163.629 17.4747 164.17 17.7173 164.842 17.904C165.514 18.0907 166.251 18.2773 167.054 18.464C167.875 18.6507 168.687 18.8653 169.49 19.108C170.311 19.3507 171.058 19.6773 171.73 20.088C172.402 20.4987 172.943 21.04 173.354 21.712C173.783 22.384 173.998 23.2333 173.998 24.26C173.998 25.3613 173.69 26.3693 173.074 27.284C172.458 28.1987 171.534 28.936 170.302 29.496C169.089 30.056 167.549 30.336 165.682 30.336ZM183.537 30.336C181.969 30.336 180.467 30.1307 179.029 29.72C177.592 29.2907 176.435 28.74 175.557 28.068L177.097 24.652C177.937 25.2493 178.927 25.744 180.065 26.136C181.223 26.5093 182.389 26.696 183.565 26.696C184.461 26.696 185.18 26.612 185.721 26.444C186.281 26.2573 186.692 26.0053 186.953 25.688C187.215 25.3707 187.345 25.0067 187.345 24.596C187.345 24.0733 187.14 23.6627 186.729 23.364C186.319 23.0467 185.777 22.7947 185.105 22.608C184.433 22.4027 183.687 22.216 182.865 22.048C182.063 21.8613 181.251 21.6373 180.429 21.376C179.627 21.1147 178.889 20.7787 178.217 20.368C177.545 19.9573 176.995 19.416 176.565 18.744C176.155 18.072 175.949 17.2133 175.949 16.168C175.949 15.048 176.248 14.0307 176.845 13.116C177.461 12.1827 178.376 11.4453 179.589 10.904C180.821 10.344 182.361 10.064 184.209 10.064C185.441 10.064 186.655 10.2133 187.849 10.512C189.044 10.792 190.099 11.2213 191.013 11.8L189.613 15.244C188.699 14.7213 187.784 14.3387 186.869 14.096C185.955 13.8347 185.059 13.704 184.181 13.704C183.304 13.704 182.585 13.8067 182.025 14.012C181.465 14.2173 181.064 14.488 180.821 14.824C180.579 15.1413 180.457 15.5147 180.457 15.944C180.457 16.448 180.663 16.8587 181.073 17.176C181.484 17.4747 182.025 17.7173 182.697 17.904C183.369 18.0907 184.107 18.2773 184.909 18.464C185.731 18.6507 186.543 18.8653 187.345 19.108C188.167 19.3507 188.913 19.6773 189.585 20.088C190.257 20.4987 190.799 21.04 191.209 21.712C191.639 22.384 191.853 23.2333 191.853 24.26C191.853 25.3613 191.545 26.3693 190.929 27.284C190.313 28.1987 189.389 28.936 188.157 29.496C186.944 30.056 185.404 30.336 183.537 30.336ZM209.323 30.336C207.755 30.336 206.252 30.1307 204.815 29.72C203.377 29.2907 202.22 28.74 201.343 28.068L202.883 24.652C203.723 25.2493 204.712 25.744 205.851 26.136C207.008 26.5093 208.175 26.696 209.351 26.696C210.247 26.696 210.965 26.612 211.507 26.444C212.067 26.2573 212.477 26.0053 212.739 25.688C213 25.3707 213.131 25.0067 213.131 24.596C213.131 24.0733 212.925 23.6627 212.515 23.364C212.104 23.0467 211.563 22.7947 210.891 22.608C210.219 22.4027 209.472 22.216 208.651 22.048C207.848 21.8613 207.036 21.6373 206.215 21.376C205.412 21.1147 204.675 20.7787 204.003 20.368C203.331 19.9573 202.78 19.416 202.351 18.744C201.94 18.072 201.735 17.2133 201.735 16.168C201.735 15.048 202.033 14.0307 202.631 13.116C203.247 12.1827 204.161 11.4453 205.375 10.904C206.607 10.344 208.147 10.064 209.995 10.064C211.227 10.064 212.44 10.2133 213.635 10.512C214.829 10.792 215.884 11.2213 216.799 11.8L215.399 15.244C214.484 14.7213 213.569 14.3387 212.655 14.096C211.74 13.8347 210.844 13.704 209.967 13.704C209.089 13.704 208.371 13.8067 207.811 14.012C207.251 14.2173 206.849 14.488 206.607 14.824C206.364 15.1413 206.243 15.5147 206.243 15.944C206.243 16.448 206.448 16.8587 206.859 17.176C207.269 17.4747 207.811 17.7173 208.483 17.904C209.155 18.0907 209.892 18.2773 210.695 18.464C211.516 18.6507 212.328 18.8653 213.131 19.108C213.952 19.3507 214.699 19.6773 215.371 20.088C216.043 20.4987 216.584 21.04 216.995 21.712C217.424 22.384 217.639 23.2333 217.639 24.26C217.639 25.3613 217.331 26.3693 216.715 27.284C216.099 28.1987 215.175 28.936 213.943 29.496C212.729 30.056 211.189 30.336 209.323 30.336ZM224.525 30V14.096H218.253V10.4H235.333V14.096H229.061V30H224.525ZM241.945 18.296H251.381V21.824H241.945V18.296ZM242.281 26.36H252.949V30H237.773V10.4H252.585V14.04H242.281V26.36ZM256.558 30V10.4H265.042C266.797 10.4 268.309 10.6893 269.578 11.268C270.848 11.828 271.828 12.64 272.518 13.704C273.209 14.768 273.554 16.0373 273.554 17.512C273.554 18.968 273.209 20.228 272.518 21.292C271.828 22.356 270.848 23.1773 269.578 23.756C268.309 24.316 266.797 24.596 265.042 24.596H259.078L261.094 22.552V30H256.558ZM261.094 23.056L259.078 20.9H264.79C266.19 20.9 267.236 20.6013 267.926 20.004C268.617 19.4067 268.962 18.576 268.962 17.512C268.962 16.4293 268.617 15.5893 267.926 14.992C267.236 14.3947 266.19 14.096 264.79 14.096H259.078L261.094 11.94V23.056Z" fill="#131313"/>
<path d="M28.7657 20.7576C28.7582 20.7407 28.7506 20.7237 28.7418 20.7081L24.9444 13.7109V8.76419C24.9444 8.21034 24.732 7.67916 24.354 7.28753C23.9759 6.89589 23.4632 6.67588 22.9285 6.67588H10.8333C10.2987 6.67588 9.70039 6.4811 9.32234 6.87274C8.94429 7.26437 8.81745 8.21034 8.81745 8.76419V13.7135L5.02005 20.7081C5.01123 20.7237 5.00367 20.7407 4.99485 20.7576C4.83033 21.1007 4.76045 21.4842 4.79291 21.8658C4.82537 22.2474 4.9589 22.6124 5.1788 22.9204L5.19266 22.9386L10.638 28.4727L16.0834 37.5934C16.1776 37.7199 16.2985 37.8223 16.4369 37.8928C16.5752 37.9632 16.7274 37.9999 16.8816 37.9999C17.0358 37.9999 17.1879 37.9632 17.3263 37.8928C17.4646 37.8223 17.5856 37.7199 17.6797 37.5934L23.1245 28.4727L28.5692 22.9386L28.5831 22.9204C28.803 22.6124 28.9365 22.2474 28.9687 21.8657C29.001 21.484 28.9307 21.1005 28.7657 20.7576ZM22.9285 8.76419V12.9408H10.8333V8.76419H22.9285ZM16.8809 23.3824C16.5819 23.3824 16.2896 23.2905 16.041 23.1184C15.7923 22.9463 15.5985 22.7017 15.4841 22.4155C15.3697 22.1293 15.3397 21.8144 15.3981 21.5106C15.4564 21.2068 15.6004 20.9277 15.8119 20.7087C16.0233 20.4896 16.2927 20.3405 16.586 20.28C16.8793 20.2196 17.1832 20.2506 17.4595 20.3691C17.7358 20.4877 17.9719 20.6884 18.138 20.946C18.3042 21.2036 18.3928 21.5064 18.3928 21.8162C18.3928 22.2316 18.2335 22.6299 17.95 22.9237C17.6665 23.2174 17.2819 23.3824 16.8809 23.3824ZM17.8889 33.8892V25.318C18.7009 25.0672 19.3987 24.522 19.8546 23.782C20.3105 23.0421 20.4941 22.1568 20.3717 21.2882C20.2494 20.4196 19.8293 19.6256 19.1884 19.0514C18.5474 18.4772 17.7283 18.1612 16.8809 18.1612C16.0335 18.1612 15.2145 18.4772 14.5735 19.0514C13.9325 19.6256 13.5124 20.4196 13.3901 21.2882C13.2678 22.1568 13.4513 23.0421 13.9073 23.782C14.3632 24.522 15.0609 25.0672 15.873 25.318V33.8879L12.0611 27.037L6.80157 21.6856L10.4163 15.0291H23.3468L26.9603 21.6856L21.7001 27.037L17.8889 33.8892Z" fill="#0C8E81"/>
<path d="M25.5762 7.22957L24.5692 7.30765L26.0219 7.61367L25.5762 7.22957Z" fill="#0C8E81"/>
<path d="M32.7617 10.9574L30.375 15.9574L36.1485 15.9574L33.7617 10.9574L32.7617 10.9574ZM32.7617 7.31474L32.7617 7.81474L33.7617 7.81474L33.7617 7.31474L32.7617 7.31474ZM33.7617 9.78406L33.7617 9.28406L32.7617 9.28406L32.7617 9.78406L33.7617 9.78406ZM32.7617 12.2534L32.7617 12.7534L33.7617 12.7534L33.7617 12.2534L32.7617 12.2534ZM33.7617 14.7227L33.7617 14.2227L32.7617 14.2227L32.7617 14.7227L33.7617 14.7227ZM32.7617 6.08008L32.7617 7.31474L33.7617 7.31474L33.7617 6.08008L32.7617 6.08008ZM32.7617 9.78406L32.7617 12.2534L33.7617 12.2534L33.7617 9.78406L32.7617 9.78406Z" fill="#0C8E81"/>
<path d="M16.8829 0L0 5.98462L9.19741 7.30753H23.4975L33.5769 5.85863L16.8829 0Z" fill="#0C8E81"/>
</svg>
